<svg xmlns="http://www.w3.org/2000/svg" data-name="layer 1" viewBox="0 0 48 48"><path fill="#ffffff" d="M33.5448 32.8906A8.11711 8.11711 0 0 1 29 26h1l1-.0059a6.12614 6.12614 0 0 0 3.455 5.1153zM14.455 32.8906l-.9102-1.7812A6.14866 6.14866 0 0 0 17 26h2A8.11754 8.11754 0 0 1 14.455 32.8906z" class="color464646 svgShape"></path><path fill="#ffffff" d="M48,48H46V41.3652a6.97036,6.97036,0,0,0-5.4259-6.8222L34.08,33.0449l-9.709,3.8848a1.015,1.015,0,0,1-.7422,0l-9.709-3.8848L7.4257,34.543A6.9702,6.9702,0,0,0,2,41.3652V48H0V41.3652a8.96129,8.96129,0,0,1,6.97652-8.7714l6.79878-1.5684a1.00305,1.00305,0,0,1,.5957.0469L24,34.9238l9.6288-3.8515a1.00369,1.00369,0,0,1,.59572-.0469l6.79878,1.5684A8.96147,8.96147,0,0,1,48,41.3652Z" class="color464646 svgShape"></path><rect width="2" height="5" x="36" y="43" fill="#ffffff" class="color464646 svgShape"></rect><rect width="2" height="5" x="10" y="43" fill="#ffffff" class="color464646 svgShape"></rect><path fill="#ffffff" d="M31,42a.99393.99393,0,0,1-.5812-.1855l-7-5a1.00035,1.00035,0,0,1,.21-1.7422l10-4a1.00053,1.00053,0,0,1,1.3203,1.2441l-3,9a1.00194,1.00194,0,0,1-.64058.6348A.98454.98454,0,0,1,31,42Zm-4.9308-5.75,4.4102,3.1504,1.8896-5.6719Z" class="color464646 svgShape"></path><path fill="#ffffff" d="M17,42a.98555.98555,0,0,1-.3087-.0488,1.00193,1.00193,0,0,1-.6406-.6348l-3-9a1.00053,1.00053,0,0,1,1.3203-1.2441l10,4a1.00035,1.00035,0,0,1,.21,1.7422l-7,5A.99377.99377,0,0,1,17,42Zm-1.3692-8.2715,1.8896,5.6719L21.9306,36.25Z" class="color464646 svgShape"></path><rect width="2" height="12" x="23" y="36" fill="#ffffff" class="color464646 svgShape"></rect><path fill="#ffffff" d="M27,28H21A11.01179,11.01179,0,0,1,10,17V11A11.013,11.013,0,0,1,21,0h6A11.01313,11.01313,0,0,1,38,11v6A11.01191,11.01191,0,0,1,27,28ZM21,2a9.00976,9.00976,0,0,0-9,9v6a9.00976,9.00976,0,0,0,9,9h6a9.00989,9.00989,0,0,0,9-9V11a9.00989,9.00989,0,0,0-9-9Z" class="color464646 svgShape"></path><path fill="#ffffff" d="M30,15H24a.99893.99893,0,0,1-.707-.293l-7-7,1.414-1.414L24.414,13H30Z" class="color464646 svgShape"></path><rect width="2" height="2" x="14" y="13" fill="#ffffff" class="color464646 svgShape"></rect><rect width="2" height="2" x="23" y="22" fill="#ffffff" class="color464646 svgShape"></rect><rect width="2" height="2" x="23" y="4" fill="#ffffff" class="color464646 svgShape"></rect><rect width="2" height="2" x="32" y="13" fill="#ffffff" class="color464646 svgShape"></rect></svg>