<svg xmlns="http://www.w3.org/2000/svg" width="24" height="24" fill="none" viewBox="0 0 24 24"><path fill="#242C3C" fill-rule="evenodd" d="M14 4C9.58172 4 6 7.58172 6 12L6 14.4038L8.27861 12.0303C8.66109 11.6319 9.29412 11.6189 9.69253 12.0014C10.0909 12.3839 10.1039 13.0169 9.72139 13.4153L5.72139 17.582C5.53281 17.7784 5.27229 17.8895 5 17.8895C4.72771 17.8895 4.46719 17.7784 4.27861 17.582L0.278615 13.4153C-0.10386 13.0169 -0.0909408 12.3839 0.307471 12.0014C0.705882 11.6189 1.33892 11.6319 1.72139 12.0303L4 14.4038L4 12C4 6.47715 8.47715 2 14 2C19.5228 2 24 6.47715 24 12C24 17.5228 19.5228 22 14 22L13.5 22C12.9477 22 12.5 21.5523 12.5 21C12.5 20.4477 12.9477 20 13.5 20L14 20C18.4183 20 22 16.4183 22 12C22 7.58172 18.4183 4 14 4Z" clip-rule="evenodd"/></svg>